<svg width="819.9999999999995" height="819.9999999999995" xmlns="http://www.w3.org/2000/svg" fill-rule="evenodd">

 <g stroke="black" fill="none" font-size="16" font-family="Times New Roman" id="imagebot_1">
  <title>imagebot_1</title>
  <g transform="rotate(0.156528) translate(24.4142 43.9456)" stroke-opacity="0" id="imagebot_7">
   <path d="M 297.787 449.721 C 300.644 434.627 305.36 420.002 311.623 405.987 C 369.68 444.786 446.435 451.469 512.528 416.802 C 548.705 397.603 576.606 368.794 594.443 335.178 C 606.63 344.468 617.747 355.34 627.421 366.972 C 605.478 403.536 573.538 434.888 533.038 456.063 C 456.204 496.585 367.351 491.152 297.787 449.721 Z M 255.341 417.799 C 260.042 402.159 265.936 387.12 273.386 372.489 C 281.133 381.27 289.268 389.1 298.234 396.302 C 291.567 410.301 286.489 425.166 283.019 440.393 C 273.277 433.62 264.122 426.008 255.341 417.799 Z M 207.749 354.951 C 145.863 237.206 191.319 91.5023 309.064 29.6173 C 426.808 -32.2677 572.512 13.1873 634.347 130.931 C 662.944 185.214 668.684 245.587 654.896 301.074 C 642.788 289.559 629.622 279.273 615.656 270.175 C 621.08 230.958 614.885 189.311 594.932 151.486 C 544.597 55.4683 425.794 18.5493 329.827 68.8363 C 233.601 119.37 196.682 238.171 247.17 334.194 C 251.678 342.912 256.813 351.043 262.315 358.833 C 254.26 373.392 247.751 388.612 242.436 404.482 C 229.174 389.736 217.341 373.217 207.749 354.951 Z M 601.552 320.18 C 606.126 309.552 609.747 298.738 612.361 287.686 C 625.72 296.763 638.27 307.23 649.569 318.717 C 645.98 330.139 641.339 341.173 635.956 351.772 C 625.624 340.117 614.094 329.432 601.552 320.18 Z" stroke-width="0.608" stroke-miterlimit="79.8403" marker-start="none" marker-end="none" fill-rule="evenodd" fill="#59b9b1" font-size="16" font-family="Times New Roman" id="imagebot_4"/>
   <path d="M 112.245 618.238 C -0.196453 547.1 -33.7485 398.333 37.1885 285.885 C 70.1076 233.801 119.655 198.658 174.347 182.992 C 170.639 199.274 168.189 215.75 167.308 232.282 C 130.368 247.251 97.6975 273.361 74.9605 309.489 C 16.8475 401.366 44.3705 522.572 136.053 580.475 C 227.676 638.58 349.134 611.063 407.038 519.383 C 412.188 511.205 416.792 502.603 420.535 494.022 C 437.264 493.645 453.844 491.69 470.22 488.311 C 464.091 507.192 455.749 525.592 444.549 543.181 C 373.411 655.622 224.694 689.176 112.245 618.238 Z M 427.097 477.282 C 427.146 477.336 427.196 477.338 427.247 477.339 C 427.196 477.338 427.144 477.386 427.042 477.382 C 427.044 477.331 427.044 477.331 427.097 477.282 Z M 345.944 248.398 C 311.205 226.469 272.239 216.801 234.1 218.204 C 236.152 202.929 240.016 188.071 245.28 173.617 C 287.802 174.292 330.989 186.436 369.542 210.879 C 443.038 257.208 482.905 336.855 481.847 417.909 C 467.244 422.717 452.284 426.144 436.933 427.686 C 441.436 358.199 408.826 288.328 345.944 248.398 Z M 226.679 174.031 C 227.085 173.995 227.492 173.957 227.948 173.924 C 227.669 174.673 227.441 175.375 227.214 176.076 C 227.037 175.361 226.857 174.697 226.679 174.031 Z" stroke-width="0.608" stroke-miterlimit="79.8403" marker-start="none" marker-end="none" fill-rule="evenodd" fill="#2b9777" font-size="16" font-family="Times New Roman" id="imagebot_5"/>
   <path d="M 311.871 654.13 C 327.892 649.321 343.304 643.124 358.158 635.488 C 389.415 659.98 428.539 675.325 471.279 677.021 C 579.672 681.313 671.152 597.033 675.496 488.592 C 679.787 380.198 595.35 288.914 487.109 284.578 C 477.251 284.032 467.563 284.503 458.264 285.344 C 449.39 271.105 439.529 257.642 428.417 245.148 C 447.858 241.015 468.028 239.29 488.816 240.065 C 621.639 245.363 725.152 357.52 719.804 490.342 C 714.5 623.366 602.343 726.879 469.572 721.532 C 408.07 718.98 353.035 693.708 311.871 654.13 Z M 238.534 471.255 C 241.921 384.408 290.859 310.14 361.685 270.524 C 373.235 280.602 383.522 292.053 392.612 304.477 C 330 335.162 285.853 398.401 282.894 472.956 C 281.212 513.874 292.329 552.352 312.572 584.766 C 298.388 590.601 283.553 594.794 268.42 597.354 C 247.636 560.16 236.589 516.824 238.534 471.255 Z" stroke-width="0.608" stroke-miterlimit="79.8403" marker-start="none" marker-end="none" fill-rule="evenodd" fill="#8dc497" font-size="16" font-family="Times New Roman" id="imagebot_6"/>
  </g>
 </g>
</svg>